<?xml version="1.0" encoding="UTF-8"?>
<svg id="Layer_1" data-name="Layer 1" xmlns="http://www.w3.org/2000/svg" viewBox="0 0 3759 490">
  <defs>
    <style>
      .cls-1, .cls-2 {
        fill: #fff;
      }

      .cls-3 {
        fill: #c51b27;
      }

      .cls-2 {
        font-family: Roboto-Medium, 'Roboto Medium';
        font-size: 396.98px;
      }

      .cls-4 {
        letter-spacing: -.02em;
      }
    </style>
  </defs>
  <g>
    <path class="cls-1" d="M672.51,134c-29.5,6.39-57.68,12.65-85.97,18.39-3.23,.66-7.34-1.02-10.55-2.6-48.35-23.82-107.07-9.81-136.93,32.82-31.64,45.19-27.13,103.32,10.98,141.43,30.67,30.67,77.93,39.92,118.32,24,7.32-2.89,16.15-4.52,23.83-3.47,25.75,3.53,51.3,8.54,77.25,13.04-29.44,46.72-106.14,81.07-174.94,67.29-88.18-17.66-139.09-85.89-147.96-156.03-12.02-94.98,47.9-169.31,118.27-195.45,74.05-27.51,160.33-2.87,207.7,60.58Z"/>
    <path class="cls-3" d="M68.96,203.93c50.28,0,100.57-.05,150.85,.03,13.38,.02,24.81-3.07,32.35-15.59,11.22-18.62-1.03-44.61-22.87-44.89-60.58-.78-110.11-24.74-150.91-68.53-3.4-3.64-7.26-6.85-12.59-11.83,5.26-.48,8.34-1,11.43-1,48.73-.07,97.47-.11,146.2-.08,62.47,.04,107.54,45.26,107.97,107.47,.21,29.62-5.73,57.02-25.39,79.98-14.63,17.09-33.5,27.65-54.66,32.17,40.13,41.45,80.24,82.89,120.83,124.81-.99,.35-2.33,1.23-3.67,1.24-33.48,.09-66.96,.3-100.43-.18-4.37-.06-9.78-2.73-12.88-5.95-49.29-51.25-98.09-102.99-147.49-154.14-13.19-13.66-28.01-25.73-42.09-38.53,1.12-1.66,2.23-3.31,3.35-4.97Z"/>
    <path class="cls-1" d="M150.68,366.53c.16,23.95-16.3,41.18-39.56,41.42-24.87,.26-42.31-16.25-42.48-40.21-.18-24.42,16.78-42.27,40.6-42.72,23.45-.44,41.29,17.42,41.45,41.51Z"/>
  </g>
  <text class="cls-2" transform="translate(785 383.75)"><tspan x="0" y="0">Redis Cont</tspan><tspan class="cls-4" x="1927.92" y="0">r</tspan><tspan x="2060.51" y="0">oller</tspan></text>
</svg>