<?xml version="1.0" encoding="UTF-8"?>
<svg id="Layer_1" data-name="Layer 1" xmlns="http://www.w3.org/2000/svg" xmlns:xlink="http://www.w3.org/1999/xlink" viewBox="0 0 3759 490">
  <defs>
    <style>
      .cls-1 {
        fill: #fff;
      }

      .cls-2 {
        fill: url(#linear-gradient);
      }
    </style>
    <linearGradient id="linear-gradient" x1="180.67" y1="245" x2="670.67" y2="245" gradientUnits="userSpaceOnUse">
      <stop offset="0" stop-color="#21ecac"/>
      <stop offset="1" stop-color="#1ecbe4"/>
    </linearGradient>
  </defs>
  <g>
    <path class="cls-1" d="M917.39,275.2h-54.66v108.55h-49.04V101.52h99.25c32.56,0,57.7,7.31,75.4,21.92,17.7,14.62,26.56,35.76,26.56,63.44,0,18.88-4.55,34.69-13.67,47.43s-21.81,22.54-38.09,29.39l63.39,117.53v2.52h-52.53l-56.6-108.55Zm-54.66-39.54h50.4c16.54,0,29.46-4.17,38.77-12.5,9.3-8.34,13.96-19.74,13.96-34.21s-4.3-26.81-12.89-35.08c-8.59-8.27-21.42-12.53-38.48-12.79h-51.75v94.59Z"/>
    <path class="cls-1" d="M1149.22,387.62c-29.85,0-54.05-9.4-72.59-28.2-18.54-18.8-27.82-43.84-27.82-75.11v-5.81c0-20.93,4.04-39.64,12.11-56.12,8.08-16.48,19.42-29.3,34.02-38.48,14.6-9.17,30.88-13.76,48.85-13.76,28.56,0,50.62,9.11,66.2,27.33,15.57,18.22,23.36,44,23.36,77.34v19h-137.04c1.42,17.32,7.2,31.01,17.35,41.09,10.14,10.08,22.9,15.12,38.28,15.12,21.58,0,39.16-8.72,52.72-26.17l25.39,24.23c-8.4,12.54-19.61,22.26-33.63,29.17-14.02,6.91-29.75,10.37-47.2,10.37Zm-5.62-179.69c-12.92,0-23.36,4.52-31.3,13.57-7.95,9.05-13.02,21.65-15.22,37.8h89.75v-3.49c-1.04-15.76-5.23-27.69-12.6-35.76-7.37-8.07-17.58-12.11-30.63-12.11Z"/>
    <path class="cls-1" d="M1261.07,277.33c0-32.3,7.49-58.25,22.49-77.83,14.99-19.58,35.08-29.37,60.28-29.37,22.23,0,40.19,7.75,53.89,23.26V86.01h47.1V383.75h-42.64l-2.33-21.71c-14.09,17.06-32.89,25.59-56.41,25.59s-44.42-9.89-59.61-29.66c-15.19-19.77-22.78-46.65-22.78-80.64Zm47.1,4.07c0,21.32,4.1,37.96,12.31,49.91,8.21,11.96,19.87,17.93,34.99,17.93,19.25,0,33.34-8.59,42.26-25.78v-89.55c-8.66-16.8-22.62-25.2-41.87-25.2-15.25,0-27.01,6.04-35.28,18.12-8.27,12.08-12.41,30.27-12.41,54.57Z"/>
    <path class="cls-1" d="M1494.06,119.54c0-7.24,2.29-13.24,6.88-18.03,4.58-4.78,11.15-7.17,19.67-7.17s15.12,2.39,19.77,7.17c4.65,4.78,6.98,10.79,6.98,18.03s-2.33,13.02-6.98,17.74c-4.65,4.72-11.24,7.08-19.77,7.08s-15.09-2.36-19.67-7.08c-4.59-4.72-6.88-10.63-6.88-17.74Zm50.01,264.2h-47.1V174.01h47.1v209.73Z"/>
    <path class="cls-1" d="M1712.91,326.76c0-8.4-3.46-14.8-10.37-19.19-6.92-4.39-18.38-8.27-34.41-11.63-16.02-3.36-29.4-7.62-40.12-12.79-23.52-11.37-35.28-27.85-35.28-49.43,0-18.09,7.62-33.21,22.87-45.36,15.25-12.15,34.63-18.22,58.15-18.22,25.07,0,45.32,6.2,60.77,18.61,15.44,12.41,23.16,28.49,23.16,48.27h-47.1c0-9.04-3.36-16.57-10.08-22.58-6.72-6.01-15.64-9.01-26.75-9.01-10.34,0-18.77,2.39-25.3,7.17-6.53,4.78-9.79,11.18-9.79,19.19,0,7.24,3.03,12.86,9.11,16.86,6.07,4.01,18.35,8.04,36.83,12.11,18.48,4.07,32.98,8.92,43.52,14.54,10.53,5.62,18.35,12.38,23.46,20.26,5.1,7.88,7.66,17.45,7.66,28.69,0,18.87-7.82,34.15-23.45,45.84-15.64,11.7-36.12,17.54-61.45,17.54-17.19,0-32.5-3.1-45.94-9.3-13.44-6.2-23.91-14.73-31.4-25.59-7.5-10.86-11.24-22.55-11.24-35.09h45.75c.64,11.12,4.85,19.68,12.6,25.68,7.75,6.01,18.03,9.01,30.82,9.01s21.84-2.36,28.3-7.07c6.46-4.72,9.69-10.89,9.69-18.51Z"/>
    <path class="cls-1" d="M1969.74,257.75h-115.92v86.84h135.49v39.16h-184.53V101.52h183.18v39.54h-134.14v77.92h115.92v38.77Z"/>
    <path class="cls-1" d="M2100,243.02l39.93-69.01h52.34l-64.16,103.32,66.29,106.42h-51.95l-41.87-71.72-41.67,71.72h-52.34l66.29-106.42-63.97-103.32h51.95l39.16,69.01Z"/>
    <path class="cls-1" d="M2408.01,281.01c0,32.44-7.37,58.31-22.1,77.63-14.73,19.32-34.5,28.98-59.31,28.98-23,0-41.42-7.56-55.24-22.68v99.44h-47.1V174.01h43.42l1.94,21.32c13.83-16.8,32.63-25.2,56.41-25.2,25.59,0,45.65,9.53,60.19,28.59,14.54,19.06,21.81,45.52,21.81,79.38v2.91Zm-46.91-4.07c0-20.93-4.17-37.54-12.5-49.82-8.33-12.28-20.26-18.42-35.76-18.42-19.26,0-33.08,7.95-41.48,23.84v93.04c8.53,16.28,22.49,24.42,41.87,24.42,14.99,0,26.72-6.04,35.18-18.12,8.46-12.08,12.7-30.4,12.7-54.95Z"/>
    <path class="cls-1" d="M2497.95,383.75h-47.1V86.01h47.1V383.75Z"/>
    <path class="cls-1" d="M2540.4,276.94c0-20.55,4.07-39.06,12.21-55.53,8.14-16.48,19.58-29.14,34.31-37.99,14.73-8.85,31.66-13.28,50.79-13.28,28.3,0,51.27,9.11,68.91,27.33,17.64,18.22,27.17,42.39,28.59,72.5l.19,11.05c0,20.68-3.97,39.16-11.92,55.44-7.95,16.28-19.32,28.88-34.12,37.8-14.8,8.92-31.89,13.38-51.27,13.38-29.59,0-53.28-9.85-71.04-29.56-17.77-19.71-26.65-45.97-26.65-78.8v-2.33Zm47.1,4.07c0,21.58,4.46,38.48,13.38,50.69s21.32,18.32,37.22,18.32,28.27-6.2,37.12-18.61c8.85-12.41,13.28-30.56,13.28-54.47,0-21.19-4.56-37.99-13.67-50.4s-21.49-18.61-37.12-18.61-27.59,6.11-36.64,18.32c-9.05,12.21-13.57,30.47-13.57,54.76Z"/>
    <path class="cls-1" d="M2885.05,217.04c-6.2-1.03-12.6-1.55-19.19-1.55-21.58,0-36.12,8.27-43.61,24.81v143.44h-47.1V174.01h44.97l1.16,23.45c11.37-18.22,27.14-27.33,47.3-27.33,6.72,0,12.28,.91,16.67,2.71l-.19,44.2Z"/>
    <path class="cls-1" d="M3003.48,387.62c-29.85,0-54.05-9.4-72.59-28.2-18.54-18.8-27.82-43.84-27.82-75.11v-5.81c0-20.93,4.04-39.64,12.11-56.12,8.08-16.48,19.42-29.3,34.02-38.48,14.6-9.17,30.88-13.76,48.85-13.76,28.56,0,50.62,9.11,66.2,27.33,15.57,18.22,23.36,44,23.36,77.34v19h-137.04c1.42,17.32,7.2,31.01,17.35,41.09,10.14,10.08,22.9,15.12,38.28,15.12,21.58,0,39.16-8.72,52.72-26.17l25.39,24.23c-8.4,12.54-19.61,22.26-33.63,29.17-14.02,6.91-29.75,10.37-47.2,10.37Zm-5.62-179.69c-12.92,0-23.36,4.52-31.3,13.57-7.95,9.05-13.02,21.65-15.22,37.8h89.75v-3.49c-1.04-15.76-5.23-27.69-12.6-35.76-7.37-8.07-17.58-12.11-30.63-12.11Z"/>
    <path class="cls-1" d="M3233.96,217.04c-6.2-1.03-12.6-1.55-19.19-1.55-21.58,0-36.12,8.27-43.61,24.81v143.44h-47.1V174.01h44.97l1.16,23.45c11.37-18.22,27.14-27.33,47.3-27.33,6.72,0,12.28,.91,16.67,2.71l-.19,44.2Z"/>
  </g>
  <circle class="cls-2" cx="425.67" cy="245" r="245"/>
  <g>
    <path d="M435.1,286.1h-89.22v35.45c2.65,0,5.25,0,7.86,0,34.79,0,69.58,.1,104.37-.09,4.62-.02,7.72,1.21,10.56,4.91,6.34,8.25,13.13,16.15,20.52,25.15h-173.73V191.13c1.73-.2,3.57-.59,5.41-.59,46.06-.04,92.12-.05,138.18,0,2.41,0,4.94,.22,7.21,.95,6.69,2.15,10.49,8.18,10.03,15.35-.45,7-5.17,12.63-12.29,13.46-5.81,.68-11.73,.43-17.61,.44-30.62,.03-61.25,.02-91.87,.02-2.87,0-5.73,0-8.95,0v35.39c7.57,0,14.86,0,22.15,0,12,0,24.02,.24,36.01-.11,4.96-.15,8.16,1.53,11.13,5.37,6.22,8.05,12.87,15.77,20.23,24.7Z"/>
    <path d="M557.87,351.97c-13.54,0-25,.14-36.45-.14-1.85-.04-4.16-1.49-5.41-3-28.33-34.07-56.54-68.23-86.11-103.98,9.85,0,18.21,.08,26.56-.02,15.2-.18,27.06-6.58,34.4-19.97,13.9-25.33-4.08-56.08-33.06-56.27-44.57-.29-89.15-.08-133.72-.09-2.68,0-5.35,0-8.56,0v-29.85c2.07-.2,3.94-.54,5.82-.54,44.82-.03,89.64-.27,134.46,.05,47.77,.34,80.45,43.47,67.21,88.33-5.4,18.3-17.15,31.61-34.56,41.47,22.91,27.72,45.55,55.12,69.42,84Z"/>
  </g>
</svg>